<?xml version="1.0" encoding="UTF-8" standalone="no"?>
<!-- Generator: Adobe Illustrator 25.1.0, SVG Export Plug-In . SVG Version: 6.00 Build 0)  -->

<svg
   xmlns:dc="http://purl.org/dc/elements/1.1/"
   xmlns:cc="http://creativecommons.org/ns#"
   xmlns:rdf="http://www.w3.org/1999/02/22-rdf-syntax-ns#"
   xmlns:svg="http://www.w3.org/2000/svg"
   xmlns="http://www.w3.org/2000/svg"
   xmlns:sodipodi="http://sodipodi.sourceforge.net/DTD/sodipodi-0.dtd"
   xmlns:inkscape="http://www.inkscape.org/namespaces/inkscape"
   version="1.1"
   x="0px"
   y="0px"
   viewBox="0 0 72 72"
   style="enable-background:new 0 0 72 72;"
   xml:space="preserve"
   id="svg881"
   sodipodi:docname="druboard_standard.svg"
   inkscape:version="0.92.3 (2405546, 2018-03-11)"><metadata
   id="metadata887"><rdf:RDF><cc:Work
       rdf:about=""><dc:format>image/svg+xml</dc:format><dc:type
         rdf:resource="http://purl.org/dc/dcmitype/StillImage" /></cc:Work></rdf:RDF></metadata><defs
   id="defs885" /><sodipodi:namedview
   pagecolor="#ffffff"
   bordercolor="#666666"
   borderopacity="1"
   objecttolerance="10"
   gridtolerance="10"
   guidetolerance="10"
   inkscape:pageopacity="0"
   inkscape:pageshadow="2"
   inkscape:window-width="1920"
   inkscape:window-height="1017"
   id="namedview883"
   showgrid="false"
   inkscape:zoom="8.0335187"
   inkscape:cx="32.433144"
   inkscape:cy="32.390017"
   inkscape:window-x="-8"
   inkscape:window-y="-8"
   inkscape:window-maximized="1"
   inkscape:current-layer="svg881" />
<style
   type="text/css"
   id="style852">
	.st0{display:none;}
	.st1{display:inline;fill:#39B54A;}
	.st2{fill:#FBB040;}
	.st3{fill:#ED1C24;}
	.st4{fill:none;stroke:#000000;stroke-width:4;stroke-miterlimit:10;}
	.st5{display:inline;fill:#009444;}
	.st6{display:inline;}
	.st7{font-family:'PalatinoLinotype-Bold';}
	.st8{font-size:30px;}
</style>
<g
   id="Layer_5"
   class="st0">
	<path
   class="st1"
   d="M34.84,15.34c0.82-7.05-2.4-12.31-2.4-12.31s-2.58,1.21-4.6,2.15c3.21,4.25,2.64,9.72,2.79,10.33L34.84,15.34z   "
   id="path854" />
</g>

<g
   id="Layer_1">
	
		<rect
   x="4.11"
   y="4.11"
   transform="matrix(-1 -4.487534e-11 4.487534e-11 -1 72.2979 72.2979)"
   class="st4"
   width="64.09"
   height="64.09"
   id="rect862" />
	<g
   id="Layer_6"
   class="st0">
	</g>
	<rect
   x="36.15"
   y="4.11"
   transform="matrix(-1 -4.490331e-11 4.490331e-11 -1 104.3404 40.2553)"
   width="32.04"
   height="32.04"
   id="rect865" />
	<rect
   x="4.26"
   y="36"
   transform="matrix(-1 -4.490331e-11 4.490331e-11 -1 40.5587 104.037)"
   width="32.04"
   height="32.04"
   id="rect867" />
</g>
<g
   id="Layer_3"
   class="st0">
	<path
   class="st1"
   d="M65.22,54.65c-0.28,1.46-0.57,2.63-0.79,3.45c-1.76-4.01-5.72-9.54-14.28-16.4   c-16.01-12.84-10.92-26.05-9-29.77c-1.48-3.02-8.02-2.24-8.02-2.24c0.4-1.5,0.8-3,0.8-3c0.06-0.24,4.31-0.33,7.38,1.46   c2.16-0.5,5.48-0.75,9.38,0.78C65.78,15.97,67.35,39.7,65.69,51.8C65.55,52.84,65.39,53.8,65.22,54.65z"
   id="path870" />
</g>
<g
   id="Layer_7"
   class="st0">
	<path
   class="st5"
   d="M64.43,58.11c-1.76-4.01-5.72-9.54-14.28-16.4c-16.01-12.84-10.92-26.05-9-29.77   C43.19-0.5,69.83,51.99,64.43,58.11z"
   id="path873" />
</g>
<g
   id="Layer_4"
   class="st0">
	<text
   transform="matrix(1 0 0 1 7.5813 29.2684)"
   class="st6 st7 st8"
   id="text876">R</text>

	<text
   transform="matrix(1 0 0 1 43.3262 63.793)"
   class="st6 st7 st8"
   id="text878">T</text>

</g>
</svg>