<?xml version="1.0" encoding="UTF-8" standalone="no"?>
<!-- Created with Inkscape (http://www.inkscape.org/) -->

<svg
   xmlns:dc="http://purl.org/dc/elements/1.1/"
   xmlns:cc="http://creativecommons.org/ns#"
   xmlns:rdf="http://www.w3.org/1999/02/22-rdf-syntax-ns#"
   xmlns:svg="http://www.w3.org/2000/svg"
   xmlns="http://www.w3.org/2000/svg"
   xmlns:sodipodi="http://sodipodi.sourceforge.net/DTD/sodipodi-0.dtd"
   xmlns:inkscape="http://www.inkscape.org/namespaces/inkscape"
   width="200"
   height="200"
   viewBox="0 0 52.916665 52.916668"
   version="1.1"
   id="svg8"
   inkscape:version="0.92.3 (2405546, 2018-03-11)"
   sodipodi:docname="write.svg">
  <defs
     id="defs2" />
  <sodipodi:namedview
     id="base"
     pagecolor="#ffffff"
     bordercolor="#666666"
     borderopacity="1.0"
     inkscape:pageopacity="0.0"
     inkscape:pageshadow="2"
     inkscape:zoom="5.6"
     inkscape:cx="53.244705"
     inkscape:cy="76.785435"
     inkscape:document-units="px"
     inkscape:current-layer="layer1"
     showgrid="false"
     units="px"
     inkscape:window-width="3840"
     inkscape:window-height="2035"
     inkscape:window-x="-13"
     inkscape:window-y="-13"
     inkscape:window-maximized="1" />
  <metadata
     id="metadata5">
    <rdf:RDF>
      <cc:Work
         rdf:about="">
        <dc:format>image/svg+xml</dc:format>
        <dc:type
           rdf:resource="http://purl.org/dc/dcmitype/StillImage" />
        <dc:title></dc:title>
      </cc:Work>
    </rdf:RDF>
  </metadata>
  <g
     inkscape:label="Layer 1"
     inkscape:groupmode="layer"
     id="layer1"
     transform="translate(0,-244.08332)">
    <rect
       style="opacity:1;fill:#ffffff;fill-opacity:1;stroke:#000000;stroke-width:3.05208898;stroke-linecap:round;stroke-linejoin:miter;stroke-miterlimit:4;stroke-dasharray:none;stroke-dashoffset:0;stroke-opacity:1"
       id="rect815-2"
       width="49.864574"
       height="49.864578"
       x="1.5260445"
       y="245.60936" />
    <g
       aria-label="A"
       transform="matrix(0.26458333,0,0,0.26458333,2.3032188,233.53158)"
       style="font-style:normal;font-variant:normal;font-weight:normal;font-stretch:normal;font-size:192px;line-height:1.25;font-family:Georgia;-inkscape-font-specification:Georgia;letter-spacing:0px;word-spacing:0px;fill:#000000;fill-opacity:1;stroke:none"
       id="flowRoot1959">
      <path
         d="m 159.82617,207.33371 h -55.40625 v -6.65625 q 7.3125,-0.46875 12.09375,-1.875 4.875,-1.40625 4.875,-3.46875 0,-0.84375 -0.1875,-2.0625 -0.1875,-1.21875 -0.5625,-2.15625 l -11.0625,-29.8125 H 62.982422 q -2.625,6.5625 -4.3125,11.4375 -1.59375,4.875 -2.90625,9 -1.21875,4.03125 -1.6875,6.5625 -0.46875,2.53125 -0.46875,4.125 0,3.75 5.90625,5.8125 5.90625,2.0625 13.3125,2.4375 v 6.65625 h -50.0625 v -6.65625 q 2.4375,-0.1875 6.09375,-1.03125 3.65625,-0.9375 6,-2.4375 3.75,-2.53125 5.8125,-5.25 2.0625,-2.8125 4.03125,-7.6875 10.03125,-25.03125 22.125,-56.25 12.09375,-31.218746 21.5625,-55.593746 h 7.5 L 140.23242,187.17746 q 1.40625,3.65625 3.1875,5.90625 1.78125,2.25 4.96875,4.40625 2.15625,1.3125 5.625,2.25 3.46875,0.84375 5.8125,0.9375 z m -53.625,-54.375 -20.156248,-51.5625 -19.78125,51.5625 z"
         style=""
         id="path1967" />
    </g>
  </g>
</svg>
